{
  "accessors": [
    {
      "bufferView": 0,
      "componentType": 5125,
      "count": 12933,
      "type": "SCALAR"
    },
    {
      "bufferView": 1,
      "componentType": 5126,
      "count": 2543,
      "max": [
        0.465942800045013,
        0.999999940395355,
        0.446691036224365
      ],
      "min": [
        -0.465942740440369,
        -0.999999940395355,
        -0.44669097661972
      ],
      "type": "VEC3"
    },
    {
      "bufferView": 2,
      "componentType": 5126,
      "count": 2543,
      "type": "VEC3"
    },
    {
      "bufferView": 3,
      "componentType": 5126,
      "count": 2543,
      "type": "VEC2"
    }
  ],
  "asset": {
    "generator": "Substance Painter 2019.1.1",
    "version": "2.0"
  },
  "bufferViews": [
    {
      "buffer": 0,
      "byteLength": 51732,
      "target": 34963
    },
    {
      "buffer": 0,
      "byteLength": 30516,
      "byteOffset": 51732,
      "target": 34962
    },
    {
      "buffer": 0,
      "byteLength": 30516,
      "byteOffset": 82248,
      "target": 34962
    },
    {
      "buffer": 0,
      "byteLength": 20344,
      "byteOffset": 112764,
      "target": 34962
    }
  ],
  "buffers": [
    {
      "byteLength": 133108,
      "uri": "Untitled.bin"
    }
  ],
  "images": [
    {
      "uri": "lambert1_baseColor.png"
    },
    {
      "uri": "lambert1_occlusionRoughnessMetallic.png"
    },
    {
      "uri": "lambert1_normal.png"
    }
  ],
  "materials": [
    {
      "alphaMode": "OPAQUE",
      "name": "lambert1",
      "normalTexture": {
        "index": 2
      },
      "occlusionTexture": {
        "index": 1
      },
      "pbrMetallicRoughness": {
        "baseColorTexture": {
          "index": 0
        },
        "metallicRoughnessTexture": {
          "index": 1
        }
      }
    }
  ],
  "meshes": [
    {
      "name": "polySurface7",
      "primitives": [
        {
          "attributes": {
            "NORMAL": 2,
            "POSITION": 1,
            "TEXCOORD_0": 3
          },
          "indices": 0,
          "material": 0,
          "mode": 4
        }
      ]
    }
  ],
  "nodes": [
    {
      "children": [
        1
      ],
      "name": "root",
      "scale": [
        49.1458282470703,
        49.1458282470703,
        49.1458282470703
      ],
      "translation": [
        0.154373168945313,
        49.1458282470703,
        0.159284591674805
      ]
    },
    {
      "children": [
        2
      ],
      "name": "polySurface7"
    },
    {
      "mesh": 0,
      "name": "polySurface7"
    }
  ],
  "samplers": [
    {
      "magFilter": 9729,
      "minFilter": 9985,
      "wrapS": 10497,
      "wrapT": 10497
    }
  ],
  "scene": 0,
  "scenes": [
    {
      "name": "Scene",
      "nodes": [
        0
      ]
    }
  ],
  "textures": [
    {
      "sampler": 0,
      "source": 0
    },
    {
      "sampler": 0,
      "source": 1
    },
    {
      "sampler": 0,
      "source": 2
    }
  ]
}