{
  "accessors": [
    {
      "bufferView": 2,
      "componentType": 5126,
      "count": 65532,
      "max": [
        422.84719848632812,
        -3.0077910423278809,
        392.08499145507812
      ],
      "min": [
        -394.1846923828125,
        -388.43939208984375,
        -497.12631225585938
      ],
      "type": "VEC3"
    },
    {
      "bufferView": 2,
      "byteOffset": 786384,
      "componentType": 5126,
      "count": 65532,
      "max": [
        0.99997007846832275,
        0.9998624324798584,
        0.99997621774673462
      ],
      "min": [
        -0.99994677305221558,
        -0.99999904632568359,
        -0.99997144937515259
      ],
      "type": "VEC3"
    },
    {
      "bufferView": 1,
      "componentType": 5126,
      "count": 65532,
      "max": [
        0.99916398525238037,
        0.9998670220375061
      ],
      "min": [
        0.00012500000593718141,
        0.0002010000025620684
      ],
      "type": "VEC2"
    },
    {
      "bufferView": 0,
      "componentType": 5125,
      "count": 209538,
      "max": [
        65531
      ],
      "min": [
        0
      ],
      "type": "SCALAR"
    },
    {
      "bufferView": 2,
      "byteOffset": 1572768,
      "componentType": 5126,
      "count": 65532,
      "max": [
        422.39340209960938,
        -3.0077910423278809,
        394.32769775390625
      ],
      "min": [
        -399.68179321289062,
        -393.36669921875,
        -497.55160522460938
      ],
      "type": "VEC3"
    },
    {
      "bufferView": 2,
      "byteOffset": 2359152,
      "componentType": 5126,
      "count": 65532,
      "max": [
        0.99997967481613159,
        0.99994933605194092,
        0.99998968839645386
      ],
      "min": [
        -0.99994879961013794,
        -0.99999994039535522,
        -0.99984884262084961
      ],
      "type": "VEC3"
    },
    {
      "bufferView": 1,
      "byteOffset": 524256,
      "componentType": 5126,
      "count": 65532,
      "max": [
        0.99976497888565063,
        0.9998289942741394
      ],
      "min": [
        0.00013200000103097409,
        0.00024799999664537609
      ],
      "type": "VEC2"
    },
    {
      "bufferView": 0,
      "byteOffset": 838152,
      "componentType": 5125,
      "count": 191694,
      "max": [
        65531
      ],
      "min": [
        0
      ],
      "type": "SCALAR"
    },
    {
      "bufferView": 2,
      "byteOffset": 3145536,
      "componentType": 5126,
      "count": 65532,
      "max": [
        422.5758056640625,
        -3.0334320068359375,
        395.5911865234375
      ],
      "min": [
        -398.622314453125,
        -393.36669921875,
        -498.39279174804688
      ],
      "type": "VEC3"
    },
    {
      "bufferView": 2,
      "byteOffset": 3931920,
      "componentType": 5126,
      "count": 65532,
      "max": [
        0.99997007846832275,
        0.99993383884429932,
        0.99997621774673462
      ],
      "min": [
        -0.99991655349731445,
        -0.99999940395355225,
        -0.99995177984237671
      ],
      "type": "VEC3"
    },
    {
      "bufferView": 1,
      "byteOffset": 1048512,
      "componentType": 5126,
      "count": 65532,
      "max": [
        0.9997209906578064,
        0.99986201524734497
      ],
      "min": [
        0.00013899999612476677,
        0.00025499999173916876
      ],
      "type": "VEC2"
    },
    {
      "bufferView": 0,
      "byteOffset": 1604928,
      "componentType": 5125,
      "count": 169191,
      "max": [
        65531
      ],
      "min": [
        0
      ],
      "type": "SCALAR"
    },
    {
      "bufferView": 2,
      "byteOffset": 4718304,
      "componentType": 5126,
      "count": 65534,
      "max": [
        422.96240234375,
        -3.1134459972381592,
        390.70040893554688
      ],
      "min": [
        -401.25698852539062,
        -392.28189086914062,
        -498.39279174804688
      ],
      "type": "VEC3"
    },
    {
      "bufferView": 2,
      "byteOffset": 5504712,
      "componentType": 5126,
      "count": 65534,
      "max": [
        0.9999549388885498,
        0.99993854761123657,
        0.99998331069946289
      ],
      "min": [
        -0.99994879961013794,
        -0.99999868869781494,
        -0.99997144937515259
      ],
      "type": "VEC3"
    },
    {
      "bufferView": 1,
      "byteOffset": 1572768,
      "componentType": 5126,
      "count": 65534,
      "max": [
        0.99980902671813965,
        0.99986100196838379
      ],
      "min": [
        0.00013800000306218863,
        0.00036199999158270657
      ],
      "type": "VEC2"
    },
    {
      "bufferView": 0,
      "byteOffset": 2281692,
      "componentType": 5125,
      "count": 138627,
      "max": [
        65533
      ],
      "min": [
        0
      ],
      "type": "SCALAR"
    },
    {
      "bufferView": 2,
      "byteOffset": 6291120,
      "componentType": 5126,
      "count": 65533,
      "max": [
        423.01141357421875,
        -3.0460898876190186,
        392.05380249023438
      ],
      "min": [
        -401.18170166015625,
        -393.36669921875,
        -498.40399169921875
      ],
      "type": "VEC3"
    },
    {
      "bufferView": 2,
      "byteOffset": 7077516,
      "componentType": 5126,
      "count": 65533,
      "max": [
        0.99995279312133789,
        0.99994933605194092,
        0.99992948770523071
      ],
      "min": [
        -0.99990224838256836,
        -0.99999850988388062,
        -0.99995177984237671
      ],
      "type": "VEC3"
    },
    {
      "bufferView": 1,
      "byteOffset": 2097040,
      "componentType": 5126,
      "count": 65533,
      "max": [
        0.99980801343917847,
        0.99986398220062256
      ],
      "min": [
        0.0001340000017080456,
        0.00041400000918656588
      ],
      "type": "VEC2"
    },
    {
      "bufferView": 0,
      "byteOffset": 2836200,
      "componentType": 5125,
      "count": 113919,
      "max": [
        65532
      ],
      "min": [
        0
      ],
      "type": "SCALAR"
    },
    {
      "bufferView": 2,
      "byteOffset": 7863912,
      "componentType": 5126,
      "count": 65533,
      "max": [
        422.96240234375,
        -3.1499779224395752,
        395.21649169921875
      ],
      "min": [
        -399.94119262695312,
        -392.55081176757812,
        -498.40399169921875
      ],
      "type": "VEC3"
    },
    {
      "bufferView": 2,
      "byteOffset": 8650308,
      "componentType": 5126,
      "count": 65533,
      "max": [
        0.9999585747718811,
        0.99991035461425781,
        0.99998968839645386
      ],
      "min": [
        -0.99987208843231201,
        -0.99999904632568359,
        -0.99995177984237671
      ],
      "type": "VEC3"
    },
    {
      "bufferView": 1,
      "byteOffset": 2621304,
      "componentType": 5126,
      "count": 65533,
      "max": [
        0.99980801343917847,
        0.99986898899078369
      ],
      "min": [
        0.00013899999612476677,
        0.00033700000494718552
      ],
      "type": "VEC2"
    },
    {
      "bufferView": 0,
      "byteOffset": 3291876,
      "componentType": 5125,
      "count": 96681,
      "max": [
        65532
      ],
      "min": [
        0
      ],
      "type": "SCALAR"
    },
    {
      "bufferView": 2,
      "byteOffset": 9436704,
      "componentType": 5126,
      "count": 65533,
      "max": [
        422.989013671875,
        -3.2376019954681396,
        391.92361450195312
      ],
      "min": [
        -396.5946044921875,
        -392.76971435546875,
        -498.0751953125
      ],
      "type": "VEC3"
    },
    {
      "bufferView": 2,
      "byteOffset": 10223100,
      "componentType": 5126,
      "count": 65533,
      "max": [
        0.99999988079071045,
        0.9999735951423645,
        0.99998849630355835
      ],
      "min": [
        -0.99993282556533813,
        -0.99999898672103882,
        -0.99995177984237671
      ],
      "type": "VEC3"
    },
    {
      "bufferView": 1,
      "byteOffset": 3145568,
      "componentType": 5126,
      "count": 65533,
      "max": [
        0.99978101253509521,
        0.99987101554870605
      ],
      "min": [
        0.00013000000035390258,
        0.00042100000428035855
      ],
      "type": "VEC2"
    },
    {
      "bufferView": 0,
      "byteOffset": 3678600,
      "componentType": 5125,
      "count": 85299,
      "max": [
        65532
      ],
      "min": [
        0
      ],
      "type": "SCALAR"
    },
    {
      "bufferView": 2,
      "byteOffset": 11009496,
      "componentType": 5126,
      "count": 65534,
      "max": [
        422.989013671875,
        -3.0213708877563477,
        390.58740234375
      ],
      "min": [
        -400.9552001953125,
        -392.76971435546875,
        -498.38848876953125
      ],
      "type": "VEC3"
    },
    {
      "bufferView": 2,
      "byteOffset": 11795904,
      "componentType": 5126,
      "count": 65534,
      "max": [
        0.99997144937515259,
        0.99993360042572021,
        0.99998331069946289
      ],
      "min": [
        -0.99990224838256836,
        -0.99999916553497314,
        -0.99985933303833008
      ],
      "type": "VEC3"
    },
    {
      "bufferView": 1,
      "byteOffset": 3669832,
      "componentType": 5126,
      "count": 65534,
      "max": [
        0.99980002641677856,
        0.99987399578094482
      ],
      "min": [
        0.00012700000661425292,
        0.00023700000019744039
      ],
      "type": "VEC2"
    },
    {
      "bufferView": 0,
      "byteOffset": 4019796,
      "componentType": 5125,
      "count": 76149,
      "max": [
        65533
      ],
      "min": [
        0
      ],
      "type": "SCALAR"
    },
    {
      "bufferView": 2,
      "byteOffset": 12582312,
      "componentType": 5126,
      "count": 65533,
      "max": [
        422.0054931640625,
        -3.0077910423278809,
        395.5736083984375
      ],
      "min": [
        -401.25698852539062,
        -392.64959716796875,
        -498.0751953125
      ],
      "type": "VEC3"
    },
    {
      "bufferView": 2,
      "byteOffset": 13368708,
      "componentType": 5126,
      "count": 65533,
      "max": [
        0.99997144937515259,
        0.99994933605194092,
        0.99998849630355835
      ],
      "min": [
        -0.99991601705551147,
        -0.99999994039535522,
        -0.99995201826095581
      ],
      "type": "VEC3"
    },
    {
      "bufferView": 1,
      "byteOffset": 4194104,
      "componentType": 5126,
      "count": 65533,
      "max": [
        0.99980300664901733,
        0.99986499547958374
      ],
      "min": [
        0.00013099999341648072,
        0.00027600000612437725
      ],
      "type": "VEC2"
    },
    {
      "bufferView": 0,
      "byteOffset": 4324392,
      "componentType": 5125,
      "count": 70650,
      "max": [
        65532
      ],
      "min": [
        0
      ],
      "type": "SCALAR"
    },
    {
      "bufferView": 2,
      "byteOffset": 14155104,
      "componentType": 5126,
      "count": 5023,
      "max": [
        420.29000854492188,
        -3.5356569290161133,
        381.2283935546875
      ],
      "min": [
        -387.19009399414062,
        -383.406494140625,
        -460.53109741210938
      ],
      "type": "VEC3"
    },
    {
      "bufferView": 2,
      "byteOffset": 14215380,
      "componentType": 5126,
      "count": 5023,
      "max": [
        0.99958831071853638,
        0.99987751245498657,
        0.99996769428253174
      ],
      "min": [
        -0.99907088279724121,
        -0.99999624490737915,
        -0.99906128644943237
      ],
      "type": "VEC3"
    },
    {
      "bufferView": 1,
      "byteOffset": 4718368,
      "componentType": 5126,
      "count": 5023,
      "max": [
        0.99833899736404419,
        0.9995419979095459
      ],
      "min": [
        0.00013099999341648072,
        0.00041400000918656588
      ],
      "type": "VEC2"
    },
    {
      "bufferView": 0,
      "byteOffset": 4606992,
      "componentType": 5125,
      "count": 5157,
      "max": [
        5022
      ],
      "min": [
        0
      ],
      "type": "SCALAR"
    }
  ],
  "asset": {
    "extras": {
      "author": "Moshe Caine (https://sketchfab.com/mosheca)",
      "license": "CC-BY-4.0 (http://creativecommons.org/licenses/by/4.0/)",
      "source": "https://sketchfab.com/3d-models/fruit-decay-743de6a371b04c7993e3c263e04cfc06",
      "title": "Fruit Decay"
    },
    "generator": "Sketchfab-9.47.0",
    "version": "2.0"
  },
  "bufferViews": [
    {
      "buffer": 0,
      "byteLength": 4627620,
      "byteOffset": 0,
      "name": "floatBufferViews",
      "target": 34963
    },
    {
      "buffer": 0,
      "byteLength": 4758552,
      "byteOffset": 4627620,
      "byteStride": 8,
      "name": "floatBufferViews",
      "target": 34962
    },
    {
      "buffer": 0,
      "byteLength": 14275656,
      "byteOffset": 9386172,
      "byteStride": 12,
      "name": "floatBufferViews",
      "target": 34962
    }
  ],
  "buffers": [
    {
      "byteLength": 23661828,
      "uri": "scene.bin"
    }
  ],
  "images": [
    {
      "uri": "textures/fruit_baseColor.jpeg"
    }
  ],
  "materials": [
    {
      "doubleSided": true,
      "name": "fruit",
      "pbrMetallicRoughness": {
        "baseColorFactor": [
          1,
          1,
          1,
          1
        ],
        "baseColorTexture": {
          "index": 0,
          "texCoord": 0
        },
        "metallicFactor": 0.15371437778547933,
        "roughnessFactor": 1
      }
    }
  ],
  "meshes": [
    {
      "primitives": [
        {
          "attributes": {
            "NORMAL": 1,
            "POSITION": 0,
            "TEXCOORD_0": 2
          },
          "indices": 3,
          "material": 0,
          "mode": 4
        }
      ]
    },
    {
      "primitives": [
        {
          "attributes": {
            "NORMAL": 5,
            "POSITION": 4,
            "TEXCOORD_0": 6
          },
          "indices": 7,
          "material": 0,
          "mode": 4
        }
      ]
    },
    {
      "primitives": [
        {
          "attributes": {
            "NORMAL": 9,
            "POSITION": 8,
            "TEXCOORD_0": 10
          },
          "indices": 11,
          "material": 0,
          "mode": 4
        }
      ]
    },
    {
      "primitives": [
        {
          "attributes": {
            "NORMAL": 13,
            "POSITION": 12,
            "TEXCOORD_0": 14
          },
          "indices": 15,
          "material": 0,
          "mode": 4
        }
      ]
    },
    {
      "primitives": [
        {
          "attributes": {
            "NORMAL": 17,
            "POSITION": 16,
            "TEXCOORD_0": 18
          },
          "indices": 19,
          "material": 0,
          "mode": 4
        }
      ]
    },
    {
      "primitives": [
        {
          "attributes": {
            "NORMAL": 21,
            "POSITION": 20,
            "TEXCOORD_0": 22
          },
          "indices": 23,
          "material": 0,
          "mode": 4
        }
      ]
    },
    {
      "primitives": [
        {
          "attributes": {
            "NORMAL": 25,
            "POSITION": 24,
            "TEXCOORD_0": 26
          },
          "indices": 27,
          "material": 0,
          "mode": 4
        }
      ]
    },
    {
      "primitives": [
        {
          "attributes": {
            "NORMAL": 29,
            "POSITION": 28,
            "TEXCOORD_0": 30
          },
          "indices": 31,
          "material": 0,
          "mode": 4
        }
      ]
    },
    {
      "primitives": [
        {
          "attributes": {
            "NORMAL": 33,
            "POSITION": 32,
            "TEXCOORD_0": 34
          },
          "indices": 35,
          "material": 0,
          "mode": 4
        }
      ]
    },
    {
      "primitives": [
        {
          "attributes": {
            "NORMAL": 37,
            "POSITION": 36,
            "TEXCOORD_0": 38
          },
          "indices": 39,
          "material": 0,
          "mode": 4
        }
      ]
    }
  ],
  "nodes": [
    {
      "children": [
        1
      ],
      "name": "RootNode (gltf orientation matrix)",
      "rotation": [
        -0.70710678118654746,
        -0,
        -0,
        0.70710678118654757
      ]
    },
    {
      "children": [
        2
      ],
      "matrix": [
        0.99999922513961792,
        1.3772428246738855e-05,
        0.0012384745059534907,
        0,
        0.0012384753208607435,
        -6.0941245465073735e-05,
        -0.99999922513961792,
        0,
        -1.3696943824470509e-05,
        1,
        -6.0958253015996888e-05,
        0,
        0.2447545975446701,
        -146.79238891601562,
        -249.61137390136719,
        1
      ],
      "name": "RootNode (model correction matrix)"
    },
    {
      "children": [
        3,
        4,
        5,
        6,
        7,
        8,
        9,
        10,
        11,
        12
      ],
      "name": "fruit_Reduced_Reduced.obj.cleaner.materialmerger.gles"
    },
    {
      "mesh": 0,
      "name": ""
    },
    {
      "mesh": 1,
      "name": ""
    },
    {
      "mesh": 2,
      "name": ""
    },
    {
      "mesh": 3,
      "name": ""
    },
    {
      "mesh": 4,
      "name": ""
    },
    {
      "mesh": 5,
      "name": ""
    },
    {
      "mesh": 6,
      "name": ""
    },
    {
      "mesh": 7,
      "name": ""
    },
    {
      "mesh": 8,
      "name": ""
    },
    {
      "mesh": 9,
      "name": ""
    }
  ],
  "samplers": [
    {
      "magFilter": 9729,
      "minFilter": 9987,
      "wrapS": 10497,
      "wrapT": 10497
    }
  ],
  "scene": 0,
  "scenes": [
    {
      "name": "OSG_Scene",
      "nodes": [
        0
      ]
    }
  ],
  "textures": [
    {
      "sampler": 0,
      "source": 0
    }
  ]
}

